<?xml version="1.0" encoding="utf-8"?>
<!-- Generator: Adobe Illustrator 19.0.0, SVG Export Plug-In . SVG Version: 6.00 Build 0)  -->
<svg version="1.1" id="Glasses" xmlns="http://www.w3.org/2000/svg" xmlns:xlink="http://www.w3.org/1999/xlink" x="0px" y="0px"
	 viewBox="0 0 768 384" style="enable-background:new 0 0 768 384;" xml:space="preserve">
<style type="text/css">
	.st0{opacity:0.5;fill:url(#sdw01_1_);}
	.st1{opacity:0.5;fill:url(#sdw00_1_);}
	.st2{fill:#76AADB;}
	.st3{fill:#5A5959;}
	.st4{fill:#3D3D3D;}
	.st5{fill:#313131;}
	.st6{fill:#FFFFFF;}
</style>
<g id="OriginalWayFarer">
	<g id="Shadow">
		
			<radialGradient id="sdw01_1_" cx="531.1045" cy="269.7067" r="76.014" gradientTransform="matrix(0.92 0 0 0.092 30.8796 246.6461)" gradientUnits="userSpaceOnUse">
			<stop  offset="0" style="stop-color:#191617;stop-opacity:0.95"/>
			<stop  offset="0.2446" style="stop-color:#191617;stop-opacity:0.6512"/>
			<stop  offset="0.8383" style="stop-color:#191617;stop-opacity:0"/>
		</radialGradient>
		<ellipse id="sdw01" class="st0" cx="519.5" cy="271.46" rx="97.5" ry="16.56"/>
		
			<radialGradient id="sdw00_1_" cx="243.0712" cy="271.4737" r="76.0147" gradientTransform="matrix(0.92 0 0 0.092 30.8796 248.1091)" gradientUnits="userSpaceOnUse">
			<stop  offset="0" style="stop-color:#191617;stop-opacity:0.95"/>
			<stop  offset="0.2446" style="stop-color:#191617;stop-opacity:0.6512"/>
			<stop  offset="0.8383" style="stop-color:#191617;stop-opacity:0"/>
		</radialGradient>
		<ellipse id="sdw00" class="st1" cx="254.51" cy="273.08" rx="97.51" ry="16.56"/>
	</g>
	<g id="Lenses">
		<path id="lns_x5F_l" class="st2" d="M265.67,112.14c-28.36-1.74-71.17-0.87-88.2,10.92s-10.92,47.6-7.42,64.19
			s10.59,44.13,25.18,52.84c16.59,9.9,49.49,15.28,77,11.79s45.85-13.97,56.77-34.5c8.84-16.61,21.83-65.06,13.1-81.65
			C333.35,119.13,287.06,113.45,265.67,112.14z"/>
		<path id="lns_x5F_r" class="st2" d="M590.54,123.06c-17.03-11.79-59.85-12.65-88.2-10.92c-21.4,1.31-67.68,6.99-76.41,23.58
			c-8.73,16.59,4.26,65.05,13.1,81.65c10.92,20.52,29.26,31,56.77,34.5c27.51,3.49,60.4-1.89,77-11.79
			c14.59-8.7,21.69-36.24,25.18-52.84C601.45,170.65,607.57,134.85,590.54,123.06z"/>
	</g>
	<g id="Temples">
		<path id="tmp_x5F_01" class="st3" d="M223.58,204.24c-1.06,1.06-2.11,2.12-3.17,3.18c-0.99,0.99-2.11,1.36-3.24,1.36
			c-3.23,0-6.29-2.87-6.46-3.03c-18.28-37.57-52.49-59.83-54.29-61c-0.39-2.96,0.93-5.44,2.95-7.46c1.06-1.06,2.11-2.12,3.17-3.18
			c-2.01,2.02-3.34,4.5-2.95,7.46c1.8,1.17,36.01,23.43,54.3,61c0.16,0.15,3.23,3.03,6.46,3.03
			C221.47,205.59,222.59,205.22,223.58,204.24z M545.15,204.24c1.06,1.06,2.11,2.12,3.17,3.18c0.99,0.99,2.11,1.36,3.23,1.36
			c3.23,0,6.3-2.87,6.46-3.03c18.28-37.57,52.49-59.83,54.29-61c0.39-2.96-0.93-5.44-2.95-7.46c-1.06-1.06-2.11-2.12-3.17-3.18
			c2.01,2.02,3.34,4.5,2.95,7.46c-1.8,1.17-36.01,23.43-54.3,61c-0.16,0.15-3.23,3.03-6.46,3.03
			C547.26,205.59,546.13,205.22,545.15,204.24z"/>
		<path id="tmp_x5F_00" class="st4" d="M174.9,127.43c20.23,12.12,47.94,46.99,49.42,49.27c5.17,7.98,1.33,23.53,1.12,24.34
			c-1.24,3.46-3.17,4.54-5.1,4.54c-3.23,0-6.3-2.87-6.46-3.03c-18.28-37.57-52.5-59.83-54.3-61
			C158.36,132.28,174.07,127.67,174.9,127.43z M593.83,127.43c-20.23,12.12-47.94,46.99-49.42,49.27
			c-5.17,7.98-1.33,23.53-1.13,24.34c1.24,3.46,3.17,4.54,5.1,4.54c3.23,0,6.29-2.87,6.46-3.03c18.28-37.57,52.49-59.83,54.3-61
			C610.37,132.28,594.65,127.67,593.83,127.43z"/>
	</g>
	<path id="front" class="st5" d="M432.47,108.21c-15.23,5.02-33.19,12.15-48.47,12.15s-33.24-7.13-48.47-12.15
		C294.49,94.68,191,85.94,125.5,106.9l1.96,36.24c0,0,11.9-2.62,15.83,10.48c3.93,13.1,13.06,67.1,29.75,88.2
		c20.72,26.2,65.35,27.21,95.54,25.91c40.64-1.75,67.24-19.8,78.6-50.36c11.35-30.57,17.76-56.77,25.03-65.06
		c3.92-4.48,8.35-4.79,11.8-4.8c3.45,0.01,7.87,0.33,11.8,4.8c7.27,8.3,13.68,34.5,25.03,65.06c11.35,30.57,37.96,48.61,78.6,50.36
		c30.18,1.3,74.81,0.29,95.54-25.91c16.69-21.1,25.82-75.1,29.75-88.2c3.93-13.1,15.83-10.48,15.83-10.48l1.96-36.24
		C577,85.94,473.51,94.68,432.47,108.21z M137.58,123.93c0-2.57,6.58-4.66,14.7-4.66c8.12,0,14.7,2.09,14.7,4.66
		c0,2.57-6.58,4.66-14.7,4.66C144.16,128.59,137.58,126.5,137.58,123.93z M328.98,217.38c-10.92,20.52-29.26,31-56.77,34.5
		s-60.4-1.89-77-11.79c-14.59-8.7-21.69-36.24-25.18-52.84s-9.61-52.4,7.42-64.19s59.85-12.65,88.2-10.92
		c21.4,1.31,67.68,6.99,76.41,23.58C350.81,152.32,337.82,200.77,328.98,217.38z M597.96,187.25
		c-3.49,16.59-10.59,44.13-25.18,52.84c-16.59,9.9-49.49,15.28-77,11.79c-27.51-3.49-45.85-13.97-56.77-34.5
		c-8.84-16.61-21.83-65.06-13.1-81.65c8.73-16.59,55.02-22.27,76.41-23.58c28.36-1.74,71.17-0.87,88.2,10.92
		C607.57,134.85,601.45,170.65,597.96,187.25z M615.72,128.59c-8.12,0-14.7-2.09-14.7-4.66c0-2.57,6.58-4.66,14.7-4.66
		c8.12,0,14.7,2.09,14.7,4.66C630.42,126.5,623.84,128.59,615.72,128.59z"/>
	<path id="elipse" class="st6" d="M152.28,128.59c-8.12,0-14.7-2.09-14.7-4.66c0-2.57,6.58-4.66,14.7-4.66
		c8.12,0,14.7,2.09,14.7,4.66C166.98,126.5,160.4,128.59,152.28,128.59z M615.72,119.28c-8.12,0-14.7,2.09-14.7,4.66
		c0,2.57,6.58,4.66,14.7,4.66c8.12,0,14.7-2.09,14.7-4.66C630.42,121.36,623.84,119.28,615.72,119.28z"/>
</g>
</svg>
